<svg width="948" height="470" viewBox="0 0 948 470" fill="none" xmlns="http://www.w3.org/2000/svg">
<g filter="url(#filter0_d_0_663)">
<rect x="118.211" y="56.5957" width="220.909" height="90" rx="12" fill="white"/>
<rect x="118.711" y="57.0957" width="219.909" height="89" rx="11.5" stroke="#F9F9F7"/>
</g>
<path d="M232.883 89.3242H249.784V93.4596H237.448V99.3318H249.441V103.327H237.448V109.298H249.784V113.433H232.883V89.3242ZM296.46 113.868C301.642 113.868 304.561 111.386 304.561 107.979C304.561 105.551 302.833 103.74 299.214 102.954L295.389 102.173C293.168 101.759 292.469 101.346 292.469 100.519C292.469 99.4476 293.54 98.7901 295.513 98.7901C297.651 98.7901 299.235 99.3649 299.648 101.342H304.131C303.887 97.6198 301.211 95.1633 295.786 95.1633C291.096 95.1633 287.805 97.0987 287.805 100.849C287.805 103.442 289.616 105.13 293.524 105.953L297.8 106.941C299.487 107.272 299.938 107.727 299.938 108.425C299.938 109.538 298.664 110.237 296.605 110.237C294.016 110.237 292.535 109.662 291.961 107.685H287.453C288.111 111.399 290.865 113.868 296.46 113.868ZM286.15 113.417H281.3C278.256 113.417 276.569 111.523 276.569 109.133V99.6626H273.157V95.6265H276.585V90.5607H281.093V95.6265H286.15V99.6626H281.093V107.979C281.093 108.926 281.75 109.381 282.78 109.381H286.15V113.417ZM266.714 95.6348V97.2393C265.127 95.8977 263.114 95.1648 261.036 95.1716C259.792 95.1455 258.555 95.3679 257.398 95.8259C256.241 96.2839 255.187 96.9683 254.298 97.839C253.409 98.7096 252.703 99.749 252.22 100.896C251.738 102.043 251.49 103.275 251.49 104.52C251.49 105.764 251.738 106.996 252.22 108.143C252.703 109.29 253.409 110.33 254.298 111.2C255.187 112.071 256.241 112.755 257.398 113.213C258.555 113.671 259.792 113.894 261.036 113.868C263.115 113.877 265.128 113.143 266.714 111.8V113.409H271.209V95.6265L266.714 95.6348ZM261.409 109.964C260.33 109.976 259.273 109.668 258.37 109.077C257.468 108.487 256.761 107.642 256.34 106.649C255.919 105.656 255.803 104.561 256.006 103.502C256.209 102.443 256.722 101.468 257.481 100.702C258.239 99.935 259.208 99.4112 260.265 99.1968C261.322 98.9823 262.419 99.0869 263.416 99.4973C264.413 99.9076 265.266 100.605 265.866 101.501C266.465 102.397 266.785 103.452 266.785 104.53C266.791 105.241 266.657 105.946 266.389 106.604C266.121 107.263 265.725 107.862 265.225 108.366C264.724 108.871 264.128 109.271 263.472 109.544C262.815 109.817 262.111 109.957 261.4 109.956L261.409 109.964Z" fill="#05C167"/>
<path d="M222.826 98.9637C220.564 98.9637 218.959 100.734 218.959 103.451V113.417H215.506V95.8746H218.918V98.0168C219.338 97.3068 219.942 96.7223 220.664 96.3238C221.387 95.9253 222.203 95.7274 223.028 95.7506H224.269V98.9637H222.826ZM213.12 104.646C213.12 99.4145 209.398 95.5024 204.361 95.5024C203.171 95.5105 201.994 95.7538 200.899 96.2184C199.803 96.6829 198.81 97.3596 197.977 98.2093C197.143 99.0591 196.486 100.065 196.044 101.17C195.601 102.274 195.38 103.456 195.396 104.646C195.396 109.873 199.428 113.826 204.688 113.826C206.157 113.854 207.612 113.528 208.929 112.876C210.246 112.224 211.387 111.265 212.256 110.08L209.75 108.244C209.175 109.046 208.414 109.697 207.532 110.142C206.651 110.586 205.675 110.81 204.688 110.795C203.282 110.788 201.925 110.278 200.863 109.357C199.801 108.436 199.104 107.165 198.898 105.775H213.128L213.12 104.646ZM198.973 103.037C199.589 100.362 201.727 98.5502 204.32 98.5502C206.913 98.5502 209.047 100.362 209.625 103.037H198.973ZM184.458 95.5024C183.304 95.5034 182.161 95.7331 181.097 96.1781C180.032 96.6231 179.066 97.2748 178.255 98.0953V89.3242H174.802V113.417H178.213V111.192C179.866 112.864 182.115 113.811 184.466 113.826C185.685 113.852 186.898 113.634 188.032 113.186C189.166 112.737 190.2 112.066 191.071 111.213C191.943 110.359 192.635 109.341 193.108 108.216C193.581 107.092 193.825 105.884 193.825 104.664C193.825 103.445 193.581 102.237 193.108 101.113C192.635 99.9881 191.943 98.9693 191.071 98.116C190.2 97.2627 189.166 96.5919 188.032 96.1432C186.898 95.6944 185.685 95.4765 184.466 95.5024H184.458ZM184.21 110.741C183.006 110.747 181.828 110.395 180.825 109.73C179.821 109.065 179.038 108.117 178.575 107.006C178.111 105.896 177.988 104.672 178.22 103.491C178.453 102.311 179.032 101.226 179.882 100.374C180.733 99.5222 181.817 98.9424 182.997 98.708C184.178 98.4735 185.402 98.5951 186.513 99.0572C187.624 99.5193 188.573 100.301 189.24 101.303C189.906 102.306 190.26 103.483 190.255 104.687C190.257 105.481 190.101 106.267 189.797 107.001C189.494 107.734 189.048 108.401 188.487 108.962C187.925 109.523 187.258 109.967 186.524 110.27C185.79 110.572 185.003 110.727 184.21 110.725V110.741ZM162.085 110.576C165.418 110.576 168.007 108.02 168.007 104.191V89.3242H171.584V113.417H168.049V111.138C167.222 111.992 166.232 112.669 165.136 113.129C164.041 113.589 162.864 113.822 161.676 113.814C156.536 113.814 152.578 110.067 152.578 104.385V89.3242H156.221V104.212C156.221 108.062 158.703 110.576 162.085 110.576Z" fill="black"/>
<g filter="url(#filter1_d_0_663)">
<rect x="363.12" y="56.5957" width="220.909" height="90" rx="12" fill="white"/>
<rect x="363.62" y="57.0957" width="219.909" height="89" rx="11.5" stroke="#F9F9F7"/>
</g>
<path d="M513.423 89.6667H509.323C509.092 89.6667 508.976 89.7823 508.976 90.0133V106.242C508.976 107.051 508.717 107.657 508.37 108.119C508.024 108.581 507.562 108.697 506.984 108.697C506.406 108.697 505.915 108.465 505.569 108.119C505.222 107.657 504.992 107.051 504.992 106.242V90.0133C504.992 89.7823 504.76 89.6667 504.645 89.6667H500.515C500.284 89.6667 500.169 89.7823 500.169 90.0133V106.358C500.169 108.466 500.631 110.458 501.93 111.757C503.201 113.057 504.963 113.75 506.984 113.75C509.092 113.75 510.853 113.057 512.037 111.757C513.308 110.487 513.799 108.61 513.799 106.358V90.0133C513.914 89.898 513.683 89.6667 513.423 89.6667ZM529.161 101.189C529.854 100.496 531.154 98.8497 531.154 96.7128C531.154 94.2296 530.201 92.7279 529.479 91.8903C528.18 90.5043 526.447 89.7823 524.426 89.7823H517.957C517.697 89.7823 517.582 90.0133 517.582 90.1287V113.057C517.582 113.288 517.813 113.404 517.957 113.404H524.801C526.909 113.404 528.901 112.595 530.201 110.92C530.894 109.996 531.731 108.437 531.731 106.098C531.5 103.297 529.768 101.651 529.161 101.189ZM522.346 94.4892H524.455C525.032 94.4892 525.494 94.6045 525.841 95.0667C526.216 95.4421 526.332 96.0197 526.332 96.7416C526.332 97.4634 526.216 98.012 525.841 98.5032C525.494 98.8496 525.032 99.0806 524.57 99.0806H522.462V94.4892H522.346ZM526.1 108.004C525.754 108.466 525.292 108.581 524.57 108.581H522.231V103.614H524.57C525.148 103.614 525.61 103.874 525.956 104.221C526.331 104.683 526.563 105.26 526.563 105.982C526.678 106.935 526.476 107.513 526.1 108.004ZM442.473 103.181C442.935 102.835 443.31 102.604 443.657 102.113C444.465 101.189 445.534 99.5425 445.534 96.9437C445.534 94.4602 444.581 92.8432 443.657 91.8903C442.473 90.5043 440.711 89.7823 438.719 89.6667H431.904C431.673 89.6667 431.558 89.898 431.558 90.0133V112.913C431.558 113.144 431.789 113.259 431.904 113.259H436.004C436.236 113.259 436.351 113.028 436.351 112.913V104.452H437.766L440.336 113.144C440.336 113.259 440.596 113.375 440.712 113.375H445.043C445.159 113.375 445.274 113.259 445.39 113.259C445.505 113.259 445.505 113.028 445.505 112.913L442.473 103.181ZM439.874 98.936C439.527 99.3984 438.95 99.658 438.228 99.658H436.235V94.4892H438.228C438.921 94.4892 439.498 94.7202 439.874 95.1822C440.336 95.6733 440.48 96.2507 440.48 97.0593C440.48 97.8967 440.365 98.4741 439.874 98.936ZM477.212 101.189C477.934 100.496 479.204 98.8497 479.204 96.7128C479.204 94.2296 478.28 92.7279 477.558 91.8903C476.259 90.5043 474.497 89.7823 472.505 89.7823H466.065C465.834 89.7823 465.719 90.0133 465.719 90.1287V113.057C465.719 113.288 465.95 113.404 466.065 113.404H472.88C474.988 113.404 476.981 112.595 478.309 110.92C479.002 109.996 479.84 108.437 479.84 106.098C479.695 103.297 477.934 101.651 477.212 101.189ZM470.426 94.4892H472.534C473.111 94.4892 473.573 94.6045 473.92 95.0667C474.266 95.4421 474.382 96.0197 474.382 96.7416C474.382 97.4634 474.266 98.012 473.92 98.5032C473.573 98.8496 473.111 99.0806 472.649 99.0806H470.541V94.4892H470.426ZM474.295 108.004C473.949 108.466 473.487 108.581 472.765 108.581H470.426V103.614H472.765C473.342 103.614 473.804 103.874 474.151 104.221C474.497 104.683 474.757 105.26 474.757 105.982C474.786 106.935 474.671 107.513 474.295 108.004ZM421.422 89.3203C419.314 89.3203 417.552 90.0133 416.368 91.3127C415.098 92.6122 414.636 94.4602 414.636 96.7127V106.473C414.636 108.581 415.098 110.573 416.368 111.873C417.668 113.173 419.429 113.866 421.422 113.866C423.53 113.866 425.32 113.173 426.504 111.873C427.775 110.602 428.237 108.725 428.237 106.473V101.102C428.237 100.842 428.006 100.611 427.775 100.611H421.797C421.537 100.611 421.306 100.842 421.306 101.102V105.087C421.306 105.318 421.537 105.549 421.797 105.549H423.328V106.502C423.328 107.311 423.097 108.033 422.75 108.495C422.403 108.957 421.913 109.072 421.335 109.072C420.758 109.072 420.296 108.841 419.92 108.495C419.574 108.033 419.343 107.311 419.343 106.502V96.8573C419.343 96.0197 419.574 95.2978 419.92 94.8644C420.296 94.4024 420.758 94.287 421.335 94.287C421.913 94.287 422.404 94.5181 422.75 94.8644C423.097 95.3265 423.328 96.0197 423.328 96.8573V97.7813C423.328 98.0121 423.559 98.1565 423.674 98.1565H427.775C428.006 98.1565 428.121 98.0121 428.121 97.7813V96.8573C428.121 94.749 427.659 92.7566 426.36 91.4572C425.32 90.0133 423.414 89.3203 421.422 89.3203ZM461.618 89.6667H457.518C457.287 89.6667 457.171 89.7823 457.171 90.0133V106.242C457.171 107.051 456.911 107.657 456.565 108.119C456.218 108.581 455.756 108.697 455.179 108.697C454.601 108.697 454.11 108.465 453.764 108.119C453.417 107.657 453.186 107.051 453.186 106.242V90.0133C453.186 89.7823 452.926 89.6667 452.811 89.6667H448.711C448.479 89.6667 448.364 89.7823 448.364 90.0133V106.358C448.364 108.466 448.855 110.458 450.125 111.757C451.425 113.057 453.186 113.75 455.179 113.75C457.287 113.75 459.077 113.057 460.232 111.757C461.532 110.487 461.994 108.61 461.994 106.358V90.0133C461.965 89.898 461.849 89.6667 461.618 89.6667ZM496.155 89.6667H492.055C491.824 89.6667 491.708 89.898 491.708 90.0133V98.936H487.608V90.0133C487.608 89.7823 487.377 89.6667 487.261 89.6667H483.16C482.929 89.6667 482.814 89.898 482.814 90.0133V112.913C482.814 113.144 483.045 113.259 483.16 113.259H487.261C487.492 113.259 487.608 113.028 487.608 112.913V103.759H491.708V112.913C491.708 113.144 491.939 113.259 492.055 113.259H496.155C496.386 113.259 496.502 113.028 496.502 112.913V90.0133C496.502 89.898 496.386 89.6667 496.155 89.6667Z" fill="#F63440"/>
<g filter="url(#filter2_d_0_663)">
<rect x="608.029" y="56.5957" width="220.909" height="90" rx="12" fill="white"/>
<rect x="608.529" y="57.0957" width="219.909" height="89" rx="11.5" stroke="#F9F9F7"/>
</g>
<path d="M642.373 113.48V89.3203H652.424C656.749 89.3203 659.561 92.4712 659.561 96.6619C659.561 100.853 656.749 104.011 652.424 104.011H646.217V113.464L642.373 113.48ZM646.217 92.5815V100.782H652.251C654.173 100.782 655.717 98.8281 655.717 96.6619C655.717 94.4956 654.141 92.5815 652.251 92.5815H646.217ZM678.955 108.407C680.191 108.163 681.397 107.926 682.594 107.722C682.838 109.092 683.657 110.739 686.438 110.739C687.06 110.739 690.109 110.502 690.109 108.304C690.109 104.153 679.475 108.438 679.475 100.994C679.475 98.0404 682.421 95.8111 686.131 95.8111C689.841 95.8111 692.992 97.3866 693.512 101.231C692.275 101.443 691.07 101.68 689.873 101.924C689.628 99.7576 688.297 98.9699 686.233 98.9699C684.414 98.9699 683.177 99.9309 683.177 100.994C683.177 102.404 684.484 102.775 686.54 102.987C690.479 103.397 693.78 104.256 693.78 108.304C693.78 111.944 690.629 113.866 686.438 113.866C681.98 113.866 679.435 111.503 678.955 108.407ZM694.749 98.9542V96.1184H697.734V91.0769H701.444V96.0868H705.044V98.9542H701.444V108.801C701.444 110.171 701.854 110.589 703.02 110.589C703.532 110.589 704.666 110.518 704.666 110.518V113.503C704.666 113.503 703.335 113.637 702.019 113.637C698.758 113.637 697.695 111.889 697.695 108.564V98.9542H694.749ZM717.955 103.807C717.955 101.16 717.372 98.9305 714.591 98.9305C711.945 98.9305 711.228 101.16 711.228 103.807V113.48H707.518V96.1499H710.881L711.228 98.0325C711.74 97.0715 713.804 95.8033 715.828 95.8033C716.797 95.7464 717.762 95.9602 718.616 96.4207C719.47 96.8812 720.18 97.5702 720.665 98.4106C721.594 96.8352 723.816 95.8033 725.879 95.8033C730.606 95.8033 732.055 98.6863 732.055 103.838V113.511H728.4V103.807C728.4 101.191 727.683 98.899 725.036 98.899C722.256 98.899 721.673 101.128 721.673 103.807V113.48H717.971L717.955 103.807ZM738.782 102.105C737.585 101.9 736.348 101.625 735.111 101.42C735.49 97.5757 738.648 95.7875 742.288 95.7875C747.195 95.7875 749.732 98.1507 749.732 102.924V108.966C749.732 109.998 749.936 110.581 750.661 110.581C750.963 110.577 751.263 110.529 751.551 110.439V113.464C750.835 113.658 750.095 113.751 749.354 113.74C748.631 113.786 747.918 113.557 747.358 113.097C746.798 112.638 746.433 111.984 746.337 111.266C745.671 112.059 744.842 112.7 743.907 113.144C742.972 113.589 741.952 113.827 740.917 113.842C736.9 113.842 734.497 111.605 734.497 108.328C734.497 105.618 737.002 103.145 741.587 103.145H746.053V102.105C746.053 100.766 745.502 98.9542 742.311 98.9542C740.184 98.9542 738.877 100.018 738.806 102.105M746.053 106.768V105.91H741.965C738.916 105.91 738.294 107.485 738.294 108.312C738.294 109.478 739.082 110.675 741.35 110.675C744.367 110.675 746.077 108.62 746.077 106.737M668.588 113.858C666.801 113.858 665.054 113.328 663.569 112.335C662.083 111.342 660.925 109.931 660.241 108.28C659.557 106.629 659.378 104.813 659.727 103.06C660.075 101.307 660.936 99.6975 662.199 98.4339C663.463 97.1703 665.073 96.3097 666.826 95.9611C668.578 95.6125 670.395 95.7914 672.046 96.4753C673.697 97.1591 675.108 98.3172 676.101 99.803C677.094 101.289 677.623 103.036 677.623 104.823C677.621 107.218 676.669 109.515 674.975 111.209C673.281 112.903 670.984 113.856 668.588 113.858ZM668.588 99.2377C667.482 99.2377 666.4 99.566 665.48 100.181C664.56 100.796 663.843 101.67 663.42 102.692C662.997 103.715 662.887 104.839 663.103 105.925C663.32 107.01 663.853 108.006 664.636 108.788C665.419 109.57 666.417 110.102 667.502 110.317C668.587 110.532 669.712 110.42 670.734 109.995C671.756 109.571 672.629 108.853 673.242 107.932C673.856 107.011 674.183 105.929 674.181 104.823C674.179 103.341 673.589 101.92 672.54 100.873C671.492 99.8259 670.07 99.2377 668.588 99.2377ZM774.616 107.446C775.75 107.753 776.877 108.092 778.011 108.438C777.223 110.943 774.86 113.826 770.134 113.826C765.407 113.826 761.965 110.156 761.965 104.799C761.965 99.4425 765.116 95.7718 769.96 95.7718C774.805 95.7718 777.79 99.0014 777.79 104.248C777.801 104.8 777.777 105.352 777.719 105.902H765.793C765.864 108.438 767.613 110.699 770.118 110.699C771.121 110.727 772.106 110.424 772.919 109.836C773.732 109.247 774.328 108.407 774.616 107.446ZM773.828 103.121C773.726 100.545 772.489 98.899 769.945 98.899C767.4 98.899 766.069 100.955 765.967 103.121H773.828ZM779.382 108.407C780.618 108.171 781.823 107.926 783.021 107.722C783.265 109.092 784.084 110.739 786.865 110.739C787.479 110.739 790.536 110.502 790.536 108.304C790.536 104.153 779.901 108.446 779.901 100.994C779.901 98.0483 782.848 95.8111 786.558 95.8111C790.268 95.8111 793.419 97.3866 793.931 101.239C792.702 101.443 791.497 101.68 790.299 101.924C790.055 99.7576 788.724 98.9699 786.66 98.9699C784.84 98.9699 783.604 99.9309 783.604 100.994C783.604 102.404 784.911 102.782 786.967 102.987C790.906 103.397 794.206 104.256 794.206 108.304C794.206 111.944 791.056 113.866 786.865 113.866C782.406 113.866 779.862 111.503 779.382 108.407ZM751 98.9542V96.1184H753.985V91.0769H757.695V96.0868H761.295V98.9542H757.695V108.801C757.695 110.171 758.105 110.589 759.31 110.589C759.822 110.589 760.957 110.518 760.957 110.518V113.503C760.957 113.503 759.633 113.637 758.31 113.637C755.057 113.637 753.985 111.889 753.985 108.564V98.9542H751Z" fill="black"/>
<g filter="url(#filter3_d_0_663)">
<rect x="59.5745" y="186.596" width="260" height="90" rx="12" fill="white"/>
<rect x="60.0745" y="187.096" width="259" height="89" rx="11.5" stroke="#F9F9F7"/>
</g>
<path d="M149.915 226.573V237.389H152.344C152.964 237.379 153.576 237.231 154.144 236.954C154.711 236.676 155.223 236.276 155.648 235.775C156.522 234.749 157 233.384 156.98 231.972C156.999 231.271 156.892 230.573 156.667 229.918C156.442 229.262 156.102 228.663 155.667 228.154C155.24 227.652 154.725 227.253 154.153 226.981C153.582 226.709 152.966 226.57 152.344 226.572H149.916L149.915 226.573ZM152.344 223.182C156.872 223.182 160.298 227.077 160.298 231.972C160.298 236.868 156.872 240.785 152.344 240.785H146.986C146.935 240.784 146.885 240.772 146.838 240.75C146.791 240.727 146.748 240.695 146.713 240.654C146.677 240.614 146.649 240.566 146.63 240.513C146.611 240.46 146.602 240.404 146.602 240.347V223.637C146.602 223.395 146.775 223.199 146.986 223.199L152.344 223.182ZM171.969 237.766C174.026 237.773 175.883 236.369 176.674 234.209C177.062 233.153 177.166 231.995 176.973 230.876C176.78 229.756 176.298 228.723 175.587 227.901C174.888 227.092 173.984 226.538 172.995 226.312C172.007 226.085 170.979 226.197 170.049 226.633C168.149 227.524 166.907 229.632 166.904 231.972C166.904 235.163 169.167 237.751 171.969 237.766ZM171.97 222.783C176.736 222.783 180.38 226.953 180.38 231.972C180.38 236.992 176.736 241.162 171.969 241.162C167.203 241.162 163.591 237.013 163.591 231.972C163.591 226.932 167.236 222.783 171.97 222.783ZM191.957 237.766C194.76 237.758 197.029 235.167 197.026 231.977C197.023 228.783 194.749 226.198 191.947 226.197C189.142 226.197 186.868 228.781 186.864 231.972C186.864 233.51 187.4 234.984 188.356 236.071C188.823 236.606 189.383 237.032 190.001 237.323C190.619 237.614 191.285 237.765 191.957 237.766ZM191.956 222.783C196.707 222.783 200.35 226.932 200.35 231.972C200.35 237.013 196.692 241.162 191.956 241.162C187.221 241.162 183.546 237.013 183.546 231.972C183.546 226.932 187.19 222.783 191.956 222.783ZM211.463 226.573H208.037V231.229H211.463C211.733 231.242 212.004 231.193 212.257 231.086C212.51 230.979 212.741 230.816 212.935 230.606C213.331 230.179 213.556 229.588 213.561 228.966C213.571 228.651 213.524 228.337 213.422 228.042C213.319 227.748 213.165 227.479 212.967 227.253C212.772 227.03 212.538 226.855 212.279 226.739C212.02 226.622 211.742 226.567 211.463 226.578V226.573ZM204.723 223.637C204.723 223.395 204.897 223.199 205.109 223.199H211.558C214.633 223.199 216.858 225.764 216.858 228.984C216.882 231.163 215.81 233.163 214.099 234.138L217.074 240.125C217.115 240.193 217.138 240.274 217.14 240.356C217.143 240.439 217.125 240.52 217.088 240.592C217.053 240.663 216.999 240.721 216.935 240.759C216.87 240.797 216.797 240.813 216.724 240.807H214.114C214.042 240.808 213.97 240.786 213.908 240.744C213.847 240.703 213.797 240.642 213.765 240.57L210.898 234.646H208.025V240.334C208.026 240.39 208.016 240.447 207.998 240.5C207.979 240.553 207.951 240.601 207.915 240.642C207.879 240.682 207.837 240.715 207.79 240.737C207.743 240.76 207.692 240.772 207.641 240.772H205.126C205.075 240.772 205.024 240.76 204.977 240.737C204.93 240.715 204.888 240.682 204.852 240.642C204.816 240.601 204.788 240.553 204.769 240.5C204.75 240.447 204.741 240.39 204.742 240.334L204.725 223.639L204.723 223.637ZM225.495 226.656V237.473H227.923C228.543 237.464 229.155 237.317 229.723 237.04C230.291 236.764 230.803 236.364 231.229 235.864C232.103 234.839 232.581 233.476 232.563 232.065C232.583 231.363 232.477 230.663 232.253 230.007C232.028 229.35 231.688 228.749 231.254 228.239C230.826 227.737 230.309 227.337 229.737 227.065C229.164 226.793 228.547 226.654 227.925 226.657L225.495 226.656ZM227.923 223.261C232.451 223.261 235.877 227.159 235.877 232.065C235.877 236.97 232.451 240.869 227.923 240.869H222.581C222.53 240.868 222.48 240.856 222.433 240.834C222.386 240.811 222.343 240.779 222.307 240.738C222.272 240.697 222.244 240.649 222.225 240.596C222.206 240.543 222.197 240.487 222.197 240.43V223.721C222.197 223.478 222.37 223.281 222.581 223.281L227.923 223.261ZM245.981 227.562L244.102 233.346H247.857L245.981 227.562ZM242.999 236.615L241.769 240.466C241.744 240.556 241.693 240.635 241.624 240.69C241.554 240.745 241.47 240.772 241.385 240.768H238.716C238.648 240.775 238.58 240.762 238.518 240.729C238.457 240.697 238.404 240.647 238.366 240.584C238.327 240.52 238.303 240.447 238.297 240.37C238.292 240.294 238.304 240.217 238.332 240.147L244.098 223.453C244.125 223.365 244.177 223.289 244.246 223.237C244.316 223.185 244.398 223.159 244.482 223.164H247.468C247.552 223.159 247.635 223.185 247.704 223.237C247.774 223.289 247.826 223.365 247.853 223.453L253.619 240.147C253.647 240.217 253.659 240.294 253.653 240.37C253.647 240.447 253.623 240.521 253.584 240.584C253.546 240.647 253.493 240.696 253.431 240.729C253.369 240.761 253.301 240.774 253.233 240.767H250.566C250.481 240.771 250.397 240.743 250.327 240.689C250.258 240.634 250.207 240.555 250.182 240.464L248.952 236.614H242.999V236.615ZM256.712 227.938C256.712 225.174 258.811 222.783 262.125 222.783C263.909 222.739 265.637 223.48 266.931 224.845C266.971 224.886 267.002 224.936 267.024 224.991C267.045 225.047 267.056 225.106 267.056 225.167C267.056 225.227 267.045 225.287 267.024 225.342C267.002 225.397 266.971 225.447 266.931 225.488L265.453 227.159C265.418 227.2 265.376 227.232 265.329 227.254C265.282 227.276 265.232 227.288 265.181 227.288C265.13 227.288 265.08 227.276 265.033 227.254C264.986 227.232 264.944 227.2 264.908 227.159C264.212 226.435 263.298 226.025 262.344 226.008C261.018 226.008 260.038 226.884 260.038 227.895C260.038 231.163 267.872 229.277 267.872 235.565C267.868 238.751 265.753 241.162 262.014 241.162C260.976 241.173 259.946 240.953 258.986 240.514C258.026 240.075 257.155 239.427 256.426 238.606C256.386 238.565 256.355 238.515 256.334 238.46C256.312 238.404 256.301 238.345 256.301 238.285C256.301 238.224 256.312 238.165 256.334 238.109C256.355 238.054 256.386 238.004 256.426 237.963L257.855 236.335C257.891 236.292 257.934 236.258 257.982 236.235C258.03 236.212 258.082 236.2 258.134 236.2C258.187 236.2 258.238 236.212 258.286 236.235C258.334 236.258 258.377 236.292 258.413 236.335C259.313 237.325 260.524 237.887 261.791 237.902C263.448 237.902 264.539 236.896 264.539 235.635C264.539 232.366 256.71 234.253 256.71 227.964M282.076 223.615V230.222H275.446V223.615C275.447 223.559 275.437 223.502 275.418 223.45C275.399 223.397 275.371 223.349 275.336 223.308C275.3 223.268 275.257 223.235 275.21 223.213C275.164 223.191 275.113 223.179 275.062 223.178H272.547C272.496 223.179 272.446 223.191 272.399 223.213C272.352 223.235 272.309 223.268 272.273 223.308C272.238 223.349 272.21 223.397 272.191 223.45C272.172 223.502 272.162 223.559 272.163 223.615V240.306C272.163 240.548 272.337 240.745 272.547 240.745H275.062C275.273 240.745 275.446 240.548 275.446 240.306V233.595H282.071V240.306C282.071 240.548 282.245 240.745 282.456 240.745H284.97C285.182 240.745 285.354 240.548 285.354 240.306V223.615C285.355 223.559 285.346 223.502 285.327 223.45C285.308 223.397 285.28 223.349 285.244 223.308C285.208 223.268 285.166 223.235 285.119 223.213C285.072 223.191 285.021 223.179 284.97 223.178H282.456C282.353 223.181 282.256 223.229 282.185 223.31C282.114 223.392 282.075 223.502 282.076 223.615ZM132.486 225.406C130.741 221.817 127.328 219.582 123.617 219.596H95.5341C95.3445 219.597 95.1593 219.659 95.0015 219.776C94.8438 219.893 94.7205 220.059 94.6471 220.253C94.5748 220.446 94.5559 220.658 94.593 220.863C94.6301 221.068 94.7214 221.256 94.8552 221.403L100.973 228.141C101.513 228.738 102.249 229.072 103.014 229.072H122.811C124.222 229.056 125.376 230.296 125.391 231.84C125.405 233.385 124.274 234.65 122.863 234.665H109.215C109.025 234.665 108.839 234.727 108.681 234.844C108.523 234.96 108.399 235.126 108.325 235.32C108.252 235.513 108.233 235.726 108.27 235.931C108.307 236.136 108.398 236.325 108.532 236.472L114.653 243.216C115.197 243.813 115.931 244.147 116.695 244.146H122.868C130.9 244.146 136.973 234.739 132.486 225.402" fill="#FF3008"/>
<g filter="url(#filter4_d_0_663)">
<rect x="343.574" y="186.596" width="260" height="90" rx="12" fill="white"/>
<rect x="344.074" y="187.096" width="259" height="89" rx="11.5" stroke="#F9F9F7"/>
</g>
<path d="M424.578 225.929H426.957V223.643C426.957 220.883 428.483 219.072 431.528 219.072L433.054 219.36V222.121L431.434 221.833C430.481 221.833 430.103 222.409 430.103 223.359V225.929H433.148V228.689H430.099V240.117H427.054V228.689H424.578V225.929ZM440.861 225.645C444.766 225.645 448.29 228.689 448.29 233.073C448.29 237.457 444.863 240.499 440.861 240.499C436.858 240.499 433.436 237.454 433.436 233.073C433.436 228.596 436.956 225.645 440.861 225.645ZM440.861 237.738C443.719 237.738 445.241 235.643 445.241 233.073C445.241 230.503 443.719 228.405 440.861 228.405C438.003 228.405 436.48 230.5 436.48 233.073C436.48 235.546 438.007 237.738 440.861 237.738ZM456.957 225.645C460.862 225.645 464.382 228.689 464.382 233.073C464.382 237.457 460.955 240.499 456.957 240.499C452.958 240.499 449.528 237.454 449.528 233.073C449.621 228.596 453.051 225.645 456.957 225.645ZM456.957 237.738C459.811 237.738 461.337 235.643 461.337 233.073C461.337 230.503 459.811 228.405 456.957 228.405C454.102 228.405 452.576 230.5 452.576 233.073C452.576 235.546 454.099 237.738 456.957 237.738ZM480.193 240.117H477.429L477.141 238.883L476.954 238.692L476.763 238.883C475.81 239.833 474.384 240.405 472.858 240.405C468.953 240.405 465.624 237.356 465.624 232.976C465.624 228.596 468.953 225.547 472.858 225.547C474.384 225.547 475.907 226.123 476.763 227.073L476.954 227.264L477.145 227.073V219.169H480.193V240.117ZM473.049 228.312C470.191 228.312 468.669 230.406 468.669 232.976C468.669 235.546 470.191 237.644 473.049 237.644C475.622 237.644 477.429 235.546 477.429 232.976C477.429 230.5 475.622 228.312 473.049 228.312ZM483.238 225.929H486.003L486.287 227.167L486.478 227.358L486.669 227.167C487.619 226.217 489.048 225.645 490.574 225.645C494.475 225.645 497.808 228.689 497.808 233.073C497.808 237.457 494.475 240.499 490.574 240.499C489.048 240.499 487.525 239.93 486.669 238.976L486.478 238.785L486.287 238.976V246.596H483.336V225.929H483.238ZM490.286 237.738C493.144 237.738 494.666 235.643 494.666 233.073C494.666 230.503 493.144 228.405 490.286 228.405C487.716 228.405 485.905 230.5 485.905 233.073C485.905 235.546 487.716 237.738 490.286 237.738ZM505.334 231.263H507.807V230.597C507.807 228.88 506.666 228.121 505.046 228.121C503.715 228.121 502.858 228.787 502.383 230.025L499.716 229.453C500.285 227.073 502.379 225.547 505.143 225.547C508.952 225.547 510.856 227.455 510.856 231.166V240.024H508.379L508.091 238.116C507.141 239.548 505.619 240.214 503.617 240.214C501.048 240.214 499.237 238.692 499.237 235.834C499.144 233.073 501.62 231.263 505.334 231.263ZM504.003 237.738C504.953 237.738 505.903 237.45 506.572 236.784C507.332 236.118 507.713 235.262 507.713 234.121V233.833H505.143C503.333 233.833 502.192 234.689 502.192 236.025C502.192 236.975 502.858 237.738 503.999 237.738H504.003ZM513.523 225.929H516.283L516.571 227.167L516.762 227.358L516.949 227.167C517.525 226.217 519.047 225.645 520.286 225.645C523.903 225.645 525.998 228.024 525.998 231.357V240.117H522.949V231.357C522.855 229.453 521.905 228.312 519.904 228.312C518.094 228.312 516.665 229.74 516.571 231.551V240.117H513.523V225.929ZM542.281 240.117H539.52L539.232 238.883L539.045 238.692L538.854 238.883C537.9 239.833 536.471 240.405 534.949 240.405C531.044 240.405 527.714 237.356 527.714 232.976C527.714 228.596 531.044 225.547 534.949 225.547C536.471 225.547 537.998 226.123 538.854 227.073L539.045 227.264L539.236 227.073V219.169H542.281V240.117ZM535.233 228.312C532.379 228.312 530.853 230.406 530.853 232.976C530.853 235.546 532.379 237.644 535.233 237.644C537.807 237.644 539.617 235.546 539.617 232.976C539.617 230.5 537.807 228.312 535.233 228.312ZM550.948 231.263H553.424V230.597C553.424 228.88 552.283 228.121 550.663 228.121C549.332 228.121 548.471 228.787 547.996 230.025L545.333 229.453C545.901 227.073 547.996 225.547 550.757 225.547C554.568 225.547 556.472 227.455 556.472 231.166V240.024H553.996L553.708 238.116C552.758 239.548 551.232 240.214 549.234 240.214C546.661 240.214 544.854 238.692 544.854 235.834C544.757 233.073 547.14 231.263 550.948 231.263ZM549.616 237.738C550.566 237.738 551.52 237.45 552.186 236.784C552.949 236.118 553.33 235.262 553.33 234.121V233.833H550.757C548.946 233.833 547.805 234.689 547.805 236.025C547.805 236.975 548.471 237.738 549.616 237.738Z" fill="#D70F64"/>
<path d="M403.515 235.643C405.232 235.643 406.661 234.404 406.661 232.882H400.373C400.373 234.404 401.701 235.643 403.515 235.643Z" fill="#D70F64"/>
<path d="M414.096 222.502C414.859 221.93 415.241 220.976 415.241 219.929C415.241 218.025 413.718 216.596 411.81 216.596C410.576 216.596 409.525 217.168 408.956 218.122C407.236 217.286 405.344 216.862 403.431 216.884C401.523 216.888 399.638 217.311 397.91 218.122C397.334 217.165 396.29 216.596 395.052 216.596C394.156 216.586 393.293 216.931 392.651 217.556C392.008 218.18 391.638 219.033 391.622 219.929C391.63 220.413 391.736 220.89 391.932 221.332C392.129 221.774 392.413 222.172 392.767 222.502C391.321 224.601 390.555 227.094 390.575 229.643C390.576 233.053 391.93 236.323 394.341 238.734C396.752 241.146 400.022 242.501 403.431 242.503C406.841 242.501 410.11 241.146 412.52 238.736C414.931 236.325 416.286 233.056 416.288 229.647C416.288 226.983 415.525 224.503 414.096 222.506V222.502ZM403.529 241.452C397.046 241.452 391.719 236.118 391.719 229.647C391.719 227.167 392.479 224.881 393.717 222.977C394.869 221.235 396.486 219.85 398.385 218.979C399.908 218.216 401.718 217.834 403.525 217.834C405.332 217.834 407.142 218.216 408.665 218.979C410.572 219.929 412.095 221.264 413.333 222.977C414.571 224.885 415.331 227.167 415.331 229.643C415.331 236.122 410 241.449 403.525 241.449L403.529 241.452Z" fill="#D70F64"/>
<path d="M403.512 232.12C403.706 232.213 405.707 231.454 405.707 230.5C405.707 229.928 404.088 229.834 403.512 229.834C402.936 229.834 401.324 229.928 401.324 230.5C401.23 231.454 403.321 232.213 403.512 232.12ZM410.941 224.119C409.8 223.359 407.323 222.978 406.37 224.216C406.37 224.216 405.132 225.547 406.37 226.879C407.608 228.211 408.464 229.55 408.752 230.597C409.04 231.738 409.512 232.12 410.372 232.12C411.232 232.12 412.942 230.788 413.226 228.596C413.298 227.711 413.123 226.824 412.719 226.033C412.315 225.242 411.7 224.579 410.941 224.119ZM408.371 226.883C407.989 226.883 407.705 226.595 407.705 226.217C407.705 225.839 407.993 225.547 408.371 225.547C408.749 225.547 409.037 225.835 409.037 226.217C409.037 226.598 408.749 226.883 408.371 226.883ZM400.56 224.216C399.61 222.978 397.134 223.359 395.989 224.119C394.845 224.878 393.513 226.404 393.704 228.596C393.895 230.788 395.612 232.12 396.562 232.12C397.418 232.12 397.893 231.645 398.181 230.597C398.469 229.453 399.42 228.215 400.56 226.883C401.799 225.454 400.56 224.216 400.56 224.216ZM398.754 226.879C398.372 226.879 398.084 226.595 398.084 226.217C398.084 225.839 398.372 225.547 398.754 225.547C399.135 225.547 399.42 225.835 399.42 226.217C399.42 226.598 399.132 226.879 398.754 226.879Z" fill="#D70F64"/>
<g filter="url(#filter5_d_0_663)">
<rect x="627.574" y="186.596" width="260" height="90" rx="12" fill="white"/>
<rect x="628.074" y="187.096" width="259" height="89" rx="11.5" stroke="#F9F9F7"/>
</g>
<path d="M735.381 243H739.179L738.535 240.05V222.517H734.906V230.52C733.821 229.265 732.295 228.519 730.531 228.519C726.903 228.519 724.088 231.538 724.088 235.912C724.088 240.321 726.903 243.306 730.531 243.306C732.329 243.306 733.889 242.526 734.974 241.203L735.381 243ZM807.142 232.453C807.888 232.453 808.566 232.657 809.177 233.098L810.906 229.232C810.092 228.723 809.177 228.519 808.261 228.519C806.633 228.519 805.243 229.265 804.395 230.656L804.022 228.859H800.291L800.902 231.639V243.034H804.53V233.979C805.005 233.03 805.921 232.453 807.142 232.453ZM817.757 239.507C815.654 239.507 814.094 238.117 814.094 235.946C814.094 233.742 815.654 232.385 817.757 232.385C819.893 232.385 821.419 233.742 821.419 235.946C821.419 238.083 819.893 239.507 817.757 239.507ZM727.615 235.912C727.615 233.708 729.175 232.352 731.278 232.352C733.414 232.352 734.94 233.708 734.94 235.912C734.94 238.083 733.414 239.473 731.278 239.473C729.175 239.507 727.615 238.083 727.615 235.912ZM833.865 239.507C831.763 239.507 830.203 238.117 830.203 235.946C830.203 233.742 831.763 232.385 833.865 232.385C836.002 232.385 837.528 233.742 837.528 235.946C837.494 238.083 835.968 239.507 833.865 239.507ZM747.997 232.148C749.862 232.148 751.083 233.03 751.49 234.658H744.504C744.877 232.996 746.132 232.148 747.997 232.148ZM791.372 232.148C793.237 232.148 794.458 233.03 794.865 234.658H787.879C788.32 232.996 789.541 232.148 791.372 232.148ZM773.669 243H779.502L783.301 228.791H779.333L776.586 240.321L773.805 228.825H769.905L773.669 243ZM764.343 243H767.972V228.791H764.343V243ZM748.539 243.272C750.574 243.272 752.541 242.695 754.203 241.644L752.813 238.524C751.524 239.236 750.032 239.609 748.573 239.609C746.674 239.609 745.352 238.863 744.741 237.472H754.983C755.085 236.93 755.153 236.455 755.153 235.811C755.153 231.402 752.1 228.485 748.065 228.485C743.961 228.485 740.977 231.47 740.977 235.879C740.943 240.389 743.927 243.272 748.539 243.272ZM841.021 235.912C841.021 231.504 837.969 228.519 833.865 228.519C829.728 228.519 826.71 231.538 826.71 235.912C826.71 240.287 829.762 243.306 833.865 243.306C837.969 243.306 841.021 240.321 841.021 235.912ZM791.881 243.306C793.916 243.306 795.882 242.763 797.544 241.678L796.154 238.558C794.865 239.27 793.373 239.643 791.915 239.643C790.015 239.643 788.693 238.897 788.082 237.506H798.324C798.426 236.964 798.494 236.489 798.494 235.845C798.494 231.436 795.442 228.519 791.406 228.519C787.302 228.519 784.318 231.504 784.318 235.912C784.318 240.457 787.269 243.306 791.881 243.306ZM817.757 243.306C821.894 243.306 824.912 240.287 824.912 235.912C824.912 231.538 821.86 228.519 817.757 228.519C813.619 228.519 810.601 231.538 810.601 235.912C810.601 240.287 813.619 243.306 817.757 243.306ZM757.459 243H761.087V222.517H757.459V243ZM766.174 226.858C767.429 226.858 768.447 225.84 768.447 224.552C768.447 223.263 767.463 222.245 766.174 222.245C764.886 222.245 763.868 223.263 763.868 224.552C763.868 225.84 764.852 226.858 766.174 226.858ZM703.808 209.596L701.739 229.265L698.212 212.682L687.088 215.022L690.582 231.605L674.574 234.997L677.423 248.223L705.605 254.226L712.049 239.813L715.101 210.783L703.808 209.596ZM694.889 238.151C694.312 238.693 693.566 238.626 692.718 238.354C691.904 238.083 691.565 237.133 691.836 235.912C692.074 235.031 693.125 234.895 693.702 234.895C693.905 234.895 694.109 234.929 694.312 235.031C694.685 235.2 695.329 235.573 695.465 236.116C695.669 236.93 695.465 237.608 694.889 238.151ZM703.062 239.033C702.621 239.779 701.536 239.88 700.416 239.338C699.67 238.965 699.67 238.083 699.772 237.506C699.806 237.201 699.942 236.896 700.145 236.659C700.416 236.319 700.857 235.879 701.332 235.879C702.18 235.845 702.858 236.218 703.265 236.896C703.672 237.574 703.469 238.32 703.062 239.033Z" fill="#00CCBC"/>
<g filter="url(#filter6_d_0_663)">
<rect x="104.574" y="316.596" width="230" height="90" rx="12" fill="white"/>
<rect x="105.074" y="317.096" width="229" height="89" rx="11.5" stroke="#F9F9F7"/>
</g>
<path d="M162.621 358.67C164.404 360.461 165.861 363.394 165.027 365.136C162.796 369.796 146.15 377.969 144.736 376.554C143.323 375.14 151.5 358.488 156.161 356.256C157.903 355.421 160.836 356.879 162.628 358.662C162.627 358.663 162.626 358.666 162.621 358.67Z" fill="#FF8200"/>
<path d="M171.439 356.701C171.15 355.629 170.411 354.545 169.308 354.417C167.285 354.182 164.097 357.758 164.325 358.607C164.553 359.455 169.057 360.952 170.738 359.743C171.605 359.119 171.728 357.773 171.443 356.701H171.439ZM165.179 346.794C166.681 347.201 168.2 348.236 168.379 349.782C168.71 352.618 163.696 357.088 162.506 356.769C161.316 356.45 159.219 350.135 160.914 347.776C161.788 346.56 163.676 346.389 165.181 346.788C165.179 346.788 165.179 346.791 165.179 346.794Z" fill="#43B02A"/>
<path d="M209.948 363.576L208.459 363.35C207.039 363.14 206.218 362.681 206.218 361.845C206.218 360.885 207.287 360.29 208.867 360.29C209.985 360.29 210.894 360.709 211.766 361.153L211.939 361.241C212.14 361.344 212.356 361.395 212.58 361.395C213.097 361.395 213.574 361.115 213.823 360.662L213.944 360.443C214.136 360.092 214.177 359.689 214.059 359.308C213.941 358.928 213.68 358.62 213.324 358.442C212.056 357.807 210.679 357.237 208.866 357.237C205.076 357.237 202.636 359.066 202.636 362.011C202.636 364.429 204.373 365.945 207.661 366.393L209.163 366.588C210.751 366.81 211.522 367.28 211.522 368.025C211.522 368.712 211.151 369.625 208.692 369.625C207.337 369.625 205.96 369.28 204.843 368.573C204.619 368.432 204.363 368.356 204.099 368.356C203.608 368.356 203.143 368.617 202.884 369.036L202.8 369.171C202.592 369.507 202.529 369.92 202.627 370.303C202.726 370.685 202.968 371.002 203.309 371.192C205.257 372.287 207.506 372.676 208.691 372.676C212.641 372.676 215.085 370.945 215.085 367.898C215.09 365.464 213.359 364.066 209.948 363.576ZM255.878 368.897C255.593 368.579 255.183 368.396 254.756 368.396C254.467 368.396 254.185 368.479 253.939 368.634C253.134 369.144 252.255 369.414 251.39 369.414C249.017 369.414 247.295 367.539 247.295 364.957C247.295 362.374 249.017 360.5 251.39 360.5C252.302 360.5 253.117 360.747 253.883 361.257C254.477 361.651 255.328 361.55 255.816 361.029L255.943 360.894C256.278 360.538 256.436 360.054 256.379 359.568C256.323 359.092 256.063 358.666 255.666 358.403C254.498 357.628 253.052 357.22 251.482 357.22C246.926 357.22 243.744 360.401 243.744 364.955C243.744 369.511 246.926 372.693 251.482 372.693C253.059 372.693 254.514 372.276 255.69 371.486C256.083 371.222 256.342 370.801 256.4 370.328C256.46 369.853 256.31 369.376 255.992 369.02L255.878 368.897ZM182.157 351.986C180.971 351.986 180.043 352.927 180.043 354.127C180.043 355.333 180.951 356.242 182.157 356.242C183.357 356.242 184.298 355.313 184.298 354.127C184.298 352.927 183.357 351.986 182.157 351.986ZM182.796 357.346H181.549C180.939 357.346 180.443 357.842 180.443 358.452V371.211C180.443 371.822 180.939 372.317 181.549 372.317H182.796C183.407 372.317 183.903 371.822 183.903 371.211V358.452C183.903 357.842 183.407 357.346 182.796 357.346ZM223.744 369.347C222.344 369.342 220.717 368.245 220.717 366.325V360.569H223.754C224.365 360.569 224.86 360.074 224.86 359.463V358.452C224.86 357.842 224.365 357.346 223.754 357.346H220.717V354.025C220.717 353.414 220.222 352.919 219.611 352.919H218.296C217.685 352.919 217.19 353.414 217.19 354.025V366.119C217.19 369.601 219.832 372.679 223.49 372.679H223.492C223.856 372.679 224.201 372.536 224.461 372.276C224.72 372.017 224.864 371.672 224.864 371.306V370.453C224.861 369.84 224.359 369.35 223.744 369.347ZM193.521 357.221C189.093 357.221 186.623 360.763 186.623 363.792V371.211C186.623 371.822 187.119 372.317 187.729 372.317H188.991C189.601 372.317 190.097 371.822 190.097 371.211V364.349C190.097 362.051 191.489 360.529 193.519 360.529C195.549 360.529 196.942 362.051 196.942 364.349V371.211C196.942 371.822 197.437 372.317 198.048 372.317H199.309C199.92 372.317 200.415 371.822 200.415 371.211V363.792C200.418 360.761 197.949 357.221 193.521 357.221ZM284.599 357.375C284.119 357.269 282.916 357.221 282.293 357.221C282.237 357.221 282.182 357.222 282.128 357.222C278.7 357.222 275.534 360.017 275.534 363.869C275.534 363.872 275.532 363.876 275.532 363.879V371.211C275.532 371.822 276.028 372.317 276.638 372.317H277.9C278.51 372.317 279.006 371.822 279.006 371.211V363.996C279.006 361.899 280.503 360.531 282.338 360.531C282.674 360.537 283.035 360.574 283.388 360.643C283.484 360.662 283.581 360.672 283.679 360.672C284.38 360.672 284.986 360.188 285.15 359.507C285.24 359.133 285.307 358.855 285.369 358.6C285.432 358.346 285.389 358.058 285.244 357.825C285.097 357.594 284.868 357.433 284.599 357.375ZM293.851 360.569C294.462 360.569 294.957 360.074 294.957 359.463V358.452C294.957 357.842 294.462 357.346 293.851 357.346H290.815V354.025C290.815 353.414 290.319 352.919 289.707 352.919H288.392C287.781 352.919 287.285 353.414 287.285 354.025V366.119C287.285 369.601 289.928 372.679 293.586 372.679H293.588C293.954 372.679 294.297 372.536 294.557 372.276C294.816 372.017 294.96 371.672 294.96 371.306V370.453C294.96 369.838 294.458 369.349 293.843 369.347C292.443 369.342 290.816 368.245 290.816 366.325V360.569H293.851ZM269.775 358.408C269.774 358.407 269.771 358.405 269.769 358.404C268.602 357.63 267.156 357.221 265.585 357.221C265.558 357.221 265.531 357.222 265.504 357.222C265.477 357.222 265.45 357.221 265.423 357.221C263.853 357.221 262.405 357.63 261.239 358.404C261.238 358.405 261.235 358.407 261.233 358.408C259.132 359.731 257.849 362.067 257.849 364.958C257.849 367.986 259.257 370.406 261.538 371.689C262.601 372.317 263.864 372.691 265.225 372.693C267.711 372.694 269.213 371.286 269.684 370.671V371.201C269.684 371.812 270.179 372.307 270.79 372.307H272.051C272.662 372.307 273.158 371.812 273.158 371.201V364.957C273.159 362.066 271.876 359.729 269.775 358.408ZM266.894 369.182C266.489 369.316 266.078 369.393 265.669 369.41C265.639 369.411 265.61 369.411 265.58 369.413C265.554 369.413 265.53 369.414 265.504 369.414C265.479 369.414 265.454 369.413 265.429 369.413C265.399 369.413 265.369 369.411 265.339 369.41C264.93 369.393 264.518 369.316 264.115 369.182C262.483 368.606 261.4 367.005 261.4 364.957C261.4 362.54 262.91 360.742 265.05 360.522C265.061 360.521 265.073 360.521 265.084 360.519C265.133 360.515 265.181 360.511 265.231 360.508C265.258 360.507 265.286 360.505 265.313 360.504C265.36 360.502 265.409 360.501 265.456 360.501C265.473 360.501 265.489 360.5 265.506 360.5C265.523 360.5 265.538 360.5 265.555 360.501C265.604 360.501 265.651 360.502 265.698 360.504C265.726 360.505 265.753 360.507 265.78 360.508C265.829 360.511 265.879 360.514 265.927 360.519C265.938 360.521 265.95 360.521 265.961 360.522C268.101 360.742 269.611 362.538 269.611 364.957C269.608 367.004 268.525 368.606 266.894 369.182ZM238.286 358.408C238.285 358.407 238.282 358.405 238.28 358.404C237.113 357.63 235.667 357.221 234.096 357.221C234.069 357.221 234.042 357.222 234.015 357.222C233.988 357.222 233.961 357.221 233.934 357.221C232.364 357.221 230.916 357.63 229.75 358.404C229.749 358.405 229.746 358.407 229.744 358.408C227.643 359.731 226.36 362.067 226.36 364.958C226.36 367.986 227.768 370.406 230.049 371.689C231.113 372.317 232.375 372.691 233.736 372.693C236.222 372.694 237.724 371.286 238.195 370.671V371.201C238.195 371.812 238.69 372.307 239.301 372.307H240.562C241.173 372.307 241.669 371.812 241.669 371.201V364.957C241.67 362.066 240.387 359.729 238.286 358.408ZM235.405 369.182C235 369.316 234.589 369.393 234.18 369.41C234.151 369.411 234.121 369.411 234.091 369.413C234.065 369.413 234.041 369.414 234.015 369.414C233.99 369.414 233.965 369.413 233.94 369.413C233.91 369.413 233.88 369.411 233.85 369.41C233.442 369.393 233.029 369.316 232.626 369.182C230.994 368.606 229.911 367.005 229.911 364.957C229.911 362.54 231.421 360.742 233.561 360.522C233.573 360.521 233.584 360.521 233.595 360.519C233.644 360.515 233.692 360.511 233.742 360.508C233.769 360.507 233.797 360.505 233.824 360.504C233.871 360.502 233.92 360.501 233.967 360.501C233.984 360.501 234 360.5 234.017 360.5C234.034 360.5 234.049 360.5 234.067 360.501C234.115 360.501 234.162 360.502 234.209 360.504C234.237 360.505 234.264 360.507 234.291 360.508C234.34 360.511 234.39 360.514 234.438 360.519C234.449 360.521 234.461 360.521 234.472 360.522C236.612 360.742 238.122 362.538 238.122 364.957C238.12 367.004 237.036 368.606 235.405 369.182Z" fill="#43B02A"/>
<g filter="url(#filter7_d_0_663)">
<rect x="358.574" y="316.596" width="230" height="90" rx="12" fill="white"/>
<rect x="359.074" y="317.096" width="229" height="89" rx="11.5" stroke="#F9F9F7"/>
</g>
<path d="M447.181 350.771C448.575 349.914 450.235 349.576 451.857 349.597C454.295 349.683 456.724 350.32 458.872 351.485C457.502 352.703 456.055 353.836 454.664 355.035C453.75 354.818 452.807 354.469 451.859 354.686C451.226 354.826 450.583 355.129 450.211 355.687C449.839 356.239 449.885 357.038 450.339 357.532C450.876 358.138 451.67 358.411 452.414 358.666C454.063 359.185 455.795 359.572 457.251 360.548C458.218 361.175 459.026 362.074 459.432 363.159C459.83 364.168 459.884 365.278 459.804 366.35C459.72 367.788 459.361 369.246 458.552 370.454C457.714 371.722 456.384 372.582 454.992 373.134C452.041 374.25 448.692 374.01 445.797 372.842C444.742 372.418 443.739 371.875 442.809 371.222C443.828 369.82 444.862 368.429 445.911 367.049C447.186 367.631 448.479 368.184 449.816 368.601C450.718 368.917 451.754 368.775 452.57 368.29C453.194 367.929 453.605 367.233 453.594 366.508C453.63 365.902 453.26 365.351 452.791 365.002C451.825 364.286 450.621 364.043 449.492 363.702C448.057 363.267 446.559 362.821 445.4 361.827C444.451 361.024 443.943 359.811 443.801 358.598C443.644 357.129 443.726 355.601 444.284 354.218C444.839 352.779 445.859 351.566 447.181 350.771ZM412.305 350.179C414.252 350.181 416.2 350.179 418.147 350.181V363.582C418.147 365.018 418.234 366.472 417.967 367.894C417.706 369.312 417.119 370.702 416.107 371.749C415.002 372.911 413.437 373.55 411.863 373.734C410.721 373.864 409.538 373.864 408.436 373.503C406.815 373.007 405.484 371.824 404.574 370.419C405.723 369.201 406.884 367.998 408.031 366.78C408.467 367.35 408.931 367.911 409.503 368.353C409.891 368.648 410.396 368.838 410.882 368.694C411.395 368.599 411.812 368.2 412 367.723C412.239 367.136 412.297 366.493 412.304 365.865L412.305 350.179ZM421.306 350.189C423.253 350.182 425.2 350.17 427.147 350.182C427.157 353.861 427.148 357.543 427.15 361.222C427.157 362.639 427.094 364.077 427.433 365.466C427.654 366.399 428.105 367.333 428.911 367.896C429.809 368.529 430.965 368.641 432.031 368.539C432.945 368.445 433.865 368.042 434.423 367.291C434.906 366.663 435.149 365.89 435.284 365.119C435.438 364.209 435.472 363.282 435.47 362.359C435.469 358.301 435.472 354.239 435.469 350.179C437.416 350.174 439.363 350.179 441.312 350.178C441.313 354.7 441.312 359.223 441.313 363.746C441.309 365.281 441.267 366.843 440.811 368.32C440.408 369.655 439.61 370.837 438.523 371.71C437.243 372.746 435.648 373.313 434.044 373.603C432.247 373.914 430.396 373.906 428.602 373.58C427.014 373.28 425.438 372.7 424.177 371.662C423.511 371.102 422.927 370.435 422.5 369.675C421.739 368.352 421.458 366.815 421.365 365.309C421.284 364.141 421.315 362.969 421.309 361.797C421.306 357.929 421.307 354.06 421.306 350.189ZM459.852 350.181C466.18 350.179 472.507 350.181 478.832 350.181C478.853 351.888 478.868 353.598 478.823 355.305L472.274 355.304C472.266 361.381 472.283 367.458 472.28 373.535C470.331 373.54 468.382 373.535 466.435 373.538C466.406 367.462 466.43 361.383 466.422 355.306C464.236 355.305 462.05 355.3 459.865 355.308C459.836 353.599 459.861 351.89 459.852 350.181ZM486.194 350.181C491.021 350.179 495.847 350.179 500.676 350.181L500.675 355.293C497.798 355.323 494.919 355.297 492.042 355.307C492.042 356.631 492.039 357.955 492.043 359.281C494.437 359.313 496.832 359.288 499.227 359.297C499.22 361.019 499.24 362.742 499.217 364.464C498.695 364.532 498.148 364.473 497.617 364.492C495.758 364.492 493.9 364.49 492.041 364.492C492.045 365.799 492.036 367.102 492.047 368.408C494.922 368.405 497.8 368.408 500.676 368.406C500.675 370.116 500.677 371.828 500.674 373.539H486.193L486.194 350.181ZM510.672 350.188C512.815 350.189 514.956 350.186 517.098 350.189C520.031 357.973 522.946 365.759 525.882 373.539C523.731 373.55 521.581 373.54 519.431 373.545C518.933 372.209 518.439 370.871 517.948 369.533C515.183 369.523 512.418 369.526 509.652 369.531C509.124 370.87 508.586 372.205 508.059 373.545C505.926 373.525 503.79 373.544 501.657 373.533C504.664 365.752 507.662 357.968 510.672 350.188ZM522.892 350.185C529.224 350.174 535.556 350.181 541.888 350.181C541.885 351.889 541.893 353.597 541.885 355.304C539.695 355.302 537.505 355.309 535.316 355.301C535.295 361.379 535.336 367.46 535.32 373.538C533.368 373.535 531.419 373.541 529.471 373.535C529.452 367.458 529.468 361.381 529.463 355.305C527.386 355.305 525.308 355.302 523.233 355.307C523.115 355.306 522.998 355.289 522.885 355.257C522.902 353.567 522.884 351.875 522.892 350.185Z" fill="#FF3131"/>
<path d="M512.721 355.705C514.477 358.587 516.255 361.457 518.007 364.342C517.074 364.319 516.141 364.255 515.209 364.244C515.394 365.203 515.593 366.159 515.787 367.115C515.291 367.211 514.801 367.347 514.297 367.4C514.12 366.445 513.916 365.494 513.725 364.541C512.871 364.904 512.047 365.333 511.195 365.704C511.42 363.963 511.721 362.231 511.975 360.493C512.228 358.898 512.453 357.299 512.721 355.705Z" fill="white"/>
<g filter="url(#filter8_d_0_663)">
<rect x="612.574" y="316.596" width="230" height="90" rx="12" fill="white"/>
<rect x="613.074" y="317.096" width="229" height="89" rx="11.5" stroke="#F9F9F7"/>
</g>
<path d="M756.622 352.819V371.325H755.059V352.819H756.622ZM765.24 361.334V362.682H756.101V361.334H765.24ZM766.523 352.819V354.166H756.101V352.819H766.523Z" fill="#2C2F24"/>
<path d="M767.28 364.665V364.245C767.28 363.245 767.424 362.322 767.712 361.474C768 360.627 768.411 359.894 768.945 359.275C769.487 358.657 770.136 358.178 770.89 357.839C771.644 357.492 772.483 357.318 773.406 357.318C774.338 357.318 775.182 357.492 775.936 357.839C776.69 358.178 777.338 358.657 777.88 359.275C778.423 359.894 778.838 360.627 779.126 361.474C779.414 362.322 779.558 363.245 779.558 364.245V364.665C779.558 365.664 779.414 366.588 779.126 367.435C778.838 368.274 778.423 369.003 777.88 369.622C777.347 370.24 776.703 370.723 775.948 371.07C775.194 371.409 774.355 371.579 773.432 371.579C772.5 371.579 771.657 371.409 770.902 371.07C770.148 370.723 769.5 370.24 768.958 369.622C768.416 369.003 768 368.274 767.712 367.435C767.424 366.588 767.28 365.664 767.28 364.665ZM768.793 364.245V364.665C768.793 365.419 768.894 366.135 769.098 366.813C769.301 367.482 769.598 368.079 769.987 368.605C770.377 369.122 770.86 369.528 771.436 369.825C772.013 370.121 772.678 370.27 773.432 370.27C774.177 370.27 774.834 370.121 775.402 369.825C775.978 369.528 776.461 369.122 776.851 368.605C777.241 368.079 777.533 367.482 777.728 366.813C777.931 366.135 778.033 365.419 778.033 364.665V364.245C778.033 363.499 777.931 362.792 777.728 362.122C777.533 361.453 777.236 360.856 776.838 360.33C776.448 359.805 775.965 359.39 775.389 359.085C774.813 358.78 774.152 358.627 773.406 358.627C772.661 358.627 772 358.78 771.424 359.085C770.856 359.39 770.373 359.805 769.975 360.33C769.585 360.856 769.288 361.453 769.085 362.122C768.89 362.792 768.793 363.499 768.793 364.245Z" fill="#2C2F24"/>
<path d="M780.925 364.665V364.245C780.925 363.245 781.069 362.322 781.357 361.474C781.645 360.627 782.056 359.894 782.59 359.275C783.132 358.657 783.78 358.178 784.535 357.839C785.289 357.492 786.128 357.318 787.051 357.318C787.983 357.318 788.826 357.492 789.581 357.839C790.335 358.178 790.983 358.657 791.525 359.275C792.067 359.894 792.483 360.627 792.771 361.474C793.059 362.322 793.203 363.245 793.203 364.245V364.665C793.203 365.664 793.059 366.588 792.771 367.435C792.483 368.274 792.067 369.003 791.525 369.622C790.991 370.24 790.347 370.723 789.593 371.07C788.839 371.409 788 371.579 787.077 371.579C786.145 371.579 785.301 371.409 784.547 371.07C783.793 370.723 783.145 370.24 782.603 369.622C782.06 369.003 781.645 368.274 781.357 367.435C781.069 366.588 780.925 365.664 780.925 364.665ZM782.437 364.245V364.665C782.437 365.419 782.539 366.135 782.742 366.813C782.946 367.482 783.242 368.079 783.632 368.605C784.022 369.122 784.505 369.528 785.081 369.825C785.657 370.121 786.322 370.27 787.077 370.27C787.822 370.27 788.479 370.121 789.047 369.825C789.623 369.528 790.106 369.122 790.496 368.605C790.885 368.079 791.178 367.482 791.373 366.813C791.576 366.135 791.678 365.419 791.678 364.665V364.245C791.678 363.499 791.576 362.792 791.373 362.122C791.178 361.453 790.881 360.856 790.483 360.33C790.093 359.805 789.61 359.39 789.034 359.085C788.458 358.78 787.797 358.627 787.051 358.627C786.306 358.627 785.645 358.78 785.068 359.085C784.501 359.39 784.018 359.805 783.619 360.33C783.23 360.856 782.933 361.453 782.73 362.122C782.535 362.792 782.437 363.499 782.437 364.245Z" fill="#2C2F24"/>
<path d="M804.344 368.656V351.802H805.869V371.325H804.445L804.344 368.656ZM794.798 364.588V364.321C794.798 363.254 794.921 362.292 795.167 361.436C795.413 360.572 795.764 359.835 796.222 359.225C796.688 358.606 797.247 358.136 797.9 357.814C798.552 357.483 799.289 357.318 800.111 357.318C800.916 357.318 801.628 357.449 802.247 357.712C802.865 357.975 803.395 358.352 803.835 358.843C804.284 359.335 804.645 359.919 804.916 360.597C805.195 361.275 805.399 362.029 805.526 362.86V366.253C805.424 367.033 805.238 367.749 804.967 368.401C804.695 369.045 804.335 369.609 803.886 370.092C803.437 370.566 802.895 370.935 802.259 371.198C801.632 371.452 800.908 371.579 800.086 371.579C799.272 371.579 798.539 371.409 797.887 371.07C797.235 370.732 796.68 370.253 796.222 369.634C795.764 369.007 795.413 368.266 795.167 367.41C794.921 366.554 794.798 365.614 794.798 364.588ZM796.324 364.321V364.588C796.324 365.393 796.404 366.139 796.565 366.825C796.726 367.512 796.972 368.109 797.302 368.617C797.633 369.126 798.052 369.524 798.561 369.812C799.069 370.1 799.671 370.244 800.365 370.244C801.238 370.244 801.971 370.079 802.564 369.749C803.157 369.41 803.632 368.965 803.988 368.414C804.344 367.855 804.602 367.245 804.763 366.584V362.631C804.662 362.182 804.513 361.724 804.318 361.258C804.123 360.792 803.857 360.364 803.518 359.974C803.187 359.576 802.763 359.258 802.247 359.021C801.738 358.775 801.12 358.653 800.391 358.653C799.688 358.653 799.082 358.797 798.573 359.085C798.065 359.373 797.641 359.775 797.302 360.292C796.972 360.801 796.726 361.398 796.565 362.084C796.404 362.771 796.324 363.516 796.324 364.321Z" fill="#2C2F24"/>
<path d="M695.75 352.7H701.493C707.273 352.7 711.866 356.254 711.866 362.248C711.866 368.781 707.918 372.12 701.493 372.12H695.75V352.7ZM698.514 369.679H701.421C706.195 369.679 708.852 367.382 708.852 362.355C708.852 357.834 705.764 355.141 701.744 355.141H698.477V369.679H698.514ZM718.328 354.746H715.384V351.802H718.328V354.746ZM715.528 357.941H718.149V372.156H715.528V357.941ZM723.031 352.7H728.774C734.553 352.7 739.148 356.254 739.148 362.248C739.148 368.781 735.2 372.12 728.774 372.12H723.031V352.7ZM725.831 369.679H728.738C733.512 369.679 736.169 367.382 736.169 362.355C736.169 357.834 733.081 355.141 729.06 355.141H725.794V369.679H725.831ZM745.609 354.746H742.665V351.802H745.609V354.746ZM742.845 357.941H745.465V372.156H742.845V357.941Z" fill="#2C2F24"/>
<path fill-rule="evenodd" clip-rule="evenodd" d="M667.527 370.431C673.988 370.216 679.087 365.083 679.157 358.729V353.238H686.265V359.305C686.121 369.176 677.541 376.929 667.527 377.146C657.332 377.072 648.682 369.247 648.574 359.302V348.427C648.574 347.315 649.292 346.596 650.368 346.596H679.157V353.238H656.579C656.004 353.238 655.646 353.598 655.646 354.171V358.623C655.717 365.048 660.923 370.36 667.527 370.431Z" fill="#FC9153"/>
<defs>
<filter id="filter0_d_0_663" x="58.6365" y="-3.6478e-05" width="340.058" height="209.149" filterUnits="userSpaceOnUse" color-interpolation-filters="sRGB">
<feFlood flood-opacity="0" result="BackgroundImageFix"/>
<feColorMatrix in="SourceAlpha" type="matrix" values="0 0 0 0 0 0 0 0 0 0 0 0 0 0 0 0 0 0 127 0" result="hardAlpha"/>
<feOffset dy="2.97872"/>
<feGaussianBlur stdDeviation="29.7872"/>
<feComposite in2="hardAlpha" operator="out"/>
<feColorMatrix type="matrix" values="0 0 0 0 0 0 0 0 0 0 0 0 0 0 0 0 0 0 0.08 0"/>
<feBlend mode="normal" in2="BackgroundImageFix" result="effect1_dropShadow_0_663"/>
<feBlend mode="normal" in="SourceGraphic" in2="effect1_dropShadow_0_663" result="shape"/>
</filter>
<filter id="filter1_d_0_663" x="303.546" y="-3.6478e-05" width="340.058" height="209.149" filterUnits="userSpaceOnUse" color-interpolation-filters="sRGB">
<feFlood flood-opacity="0" result="BackgroundImageFix"/>
<feColorMatrix in="SourceAlpha" type="matrix" values="0 0 0 0 0 0 0 0 0 0 0 0 0 0 0 0 0 0 127 0" result="hardAlpha"/>
<feOffset dy="2.97872"/>
<feGaussianBlur stdDeviation="29.7872"/>
<feComposite in2="hardAlpha" operator="out"/>
<feColorMatrix type="matrix" values="0 0 0 0 0 0 0 0 0 0 0 0 0 0 0 0 0 0 0.08 0"/>
<feBlend mode="normal" in2="BackgroundImageFix" result="effect1_dropShadow_0_663"/>
<feBlend mode="normal" in="SourceGraphic" in2="effect1_dropShadow_0_663" result="shape"/>
</filter>
<filter id="filter2_d_0_663" x="548.455" y="-3.6478e-05" width="340.058" height="209.149" filterUnits="userSpaceOnUse" color-interpolation-filters="sRGB">
<feFlood flood-opacity="0" result="BackgroundImageFix"/>
<feColorMatrix in="SourceAlpha" type="matrix" values="0 0 0 0 0 0 0 0 0 0 0 0 0 0 0 0 0 0 127 0" result="hardAlpha"/>
<feOffset dy="2.97872"/>
<feGaussianBlur stdDeviation="29.7872"/>
<feComposite in2="hardAlpha" operator="out"/>
<feColorMatrix type="matrix" values="0 0 0 0 0 0 0 0 0 0 0 0 0 0 0 0 0 0 0.08 0"/>
<feBlend mode="normal" in2="BackgroundImageFix" result="effect1_dropShadow_0_663"/>
<feBlend mode="normal" in="SourceGraphic" in2="effect1_dropShadow_0_663" result="shape"/>
</filter>
<filter id="filter3_d_0_663" x="0" y="130" width="379.149" height="209.149" filterUnits="userSpaceOnUse" color-interpolation-filters="sRGB">
<feFlood flood-opacity="0" result="BackgroundImageFix"/>
<feColorMatrix in="SourceAlpha" type="matrix" values="0 0 0 0 0 0 0 0 0 0 0 0 0 0 0 0 0 0 127 0" result="hardAlpha"/>
<feOffset dy="2.97872"/>
<feGaussianBlur stdDeviation="29.7872"/>
<feComposite in2="hardAlpha" operator="out"/>
<feColorMatrix type="matrix" values="0 0 0 0 0 0 0 0 0 0 0 0 0 0 0 0 0 0 0.08 0"/>
<feBlend mode="normal" in2="BackgroundImageFix" result="effect1_dropShadow_0_663"/>
<feBlend mode="normal" in="SourceGraphic" in2="effect1_dropShadow_0_663" result="shape"/>
</filter>
<filter id="filter4_d_0_663" x="284" y="130" width="379.149" height="209.149" filterUnits="userSpaceOnUse" color-interpolation-filters="sRGB">
<feFlood flood-opacity="0" result="BackgroundImageFix"/>
<feColorMatrix in="SourceAlpha" type="matrix" values="0 0 0 0 0 0 0 0 0 0 0 0 0 0 0 0 0 0 127 0" result="hardAlpha"/>
<feOffset dy="2.97872"/>
<feGaussianBlur stdDeviation="29.7872"/>
<feComposite in2="hardAlpha" operator="out"/>
<feColorMatrix type="matrix" values="0 0 0 0 0 0 0 0 0 0 0 0 0 0 0 0 0 0 0.08 0"/>
<feBlend mode="normal" in2="BackgroundImageFix" result="effect1_dropShadow_0_663"/>
<feBlend mode="normal" in="SourceGraphic" in2="effect1_dropShadow_0_663" result="shape"/>
</filter>
<filter id="filter5_d_0_663" x="568" y="130" width="379.149" height="209.149" filterUnits="userSpaceOnUse" color-interpolation-filters="sRGB">
<feFlood flood-opacity="0" result="BackgroundImageFix"/>
<feColorMatrix in="SourceAlpha" type="matrix" values="0 0 0 0 0 0 0 0 0 0 0 0 0 0 0 0 0 0 127 0" result="hardAlpha"/>
<feOffset dy="2.97872"/>
<feGaussianBlur stdDeviation="29.7872"/>
<feComposite in2="hardAlpha" operator="out"/>
<feColorMatrix type="matrix" values="0 0 0 0 0 0 0 0 0 0 0 0 0 0 0 0 0 0 0.08 0"/>
<feBlend mode="normal" in2="BackgroundImageFix" result="effect1_dropShadow_0_663"/>
<feBlend mode="normal" in="SourceGraphic" in2="effect1_dropShadow_0_663" result="shape"/>
</filter>
<filter id="filter6_d_0_663" x="45" y="260" width="349.149" height="209.149" filterUnits="userSpaceOnUse" color-interpolation-filters="sRGB">
<feFlood flood-opacity="0" result="BackgroundImageFix"/>
<feColorMatrix in="SourceAlpha" type="matrix" values="0 0 0 0 0 0 0 0 0 0 0 0 0 0 0 0 0 0 127 0" result="hardAlpha"/>
<feOffset dy="2.97872"/>
<feGaussianBlur stdDeviation="29.7872"/>
<feComposite in2="hardAlpha" operator="out"/>
<feColorMatrix type="matrix" values="0 0 0 0 0 0 0 0 0 0 0 0 0 0 0 0 0 0 0.08 0"/>
<feBlend mode="normal" in2="BackgroundImageFix" result="effect1_dropShadow_0_663"/>
<feBlend mode="normal" in="SourceGraphic" in2="effect1_dropShadow_0_663" result="shape"/>
</filter>
<filter id="filter7_d_0_663" x="299" y="260" width="349.149" height="209.149" filterUnits="userSpaceOnUse" color-interpolation-filters="sRGB">
<feFlood flood-opacity="0" result="BackgroundImageFix"/>
<feColorMatrix in="SourceAlpha" type="matrix" values="0 0 0 0 0 0 0 0 0 0 0 0 0 0 0 0 0 0 127 0" result="hardAlpha"/>
<feOffset dy="2.97872"/>
<feGaussianBlur stdDeviation="29.7872"/>
<feComposite in2="hardAlpha" operator="out"/>
<feColorMatrix type="matrix" values="0 0 0 0 0 0 0 0 0 0 0 0 0 0 0 0 0 0 0.08 0"/>
<feBlend mode="normal" in2="BackgroundImageFix" result="effect1_dropShadow_0_663"/>
<feBlend mode="normal" in="SourceGraphic" in2="effect1_dropShadow_0_663" result="shape"/>
</filter>
<filter id="filter8_d_0_663" x="553" y="260" width="349.149" height="209.149" filterUnits="userSpaceOnUse" color-interpolation-filters="sRGB">
<feFlood flood-opacity="0" result="BackgroundImageFix"/>
<feColorMatrix in="SourceAlpha" type="matrix" values="0 0 0 0 0 0 0 0 0 0 0 0 0 0 0 0 0 0 127 0" result="hardAlpha"/>
<feOffset dy="2.97872"/>
<feGaussianBlur stdDeviation="29.7872"/>
<feComposite in2="hardAlpha" operator="out"/>
<feColorMatrix type="matrix" values="0 0 0 0 0 0 0 0 0 0 0 0 0 0 0 0 0 0 0.08 0"/>
<feBlend mode="normal" in2="BackgroundImageFix" result="effect1_dropShadow_0_663"/>
<feBlend mode="normal" in="SourceGraphic" in2="effect1_dropShadow_0_663" result="shape"/>
</filter>
</defs>
</svg>
